# xmcd CD database file
#
# Track frame offsets:
#	150
#	12116
#	26686
#	42161
#	60723
#	74704
#	84014
#	97435
#	110455
#	132125
#	144968
#	159104
#
# Disc length: 2344 seconds
#
# Revision: 0
# Processed by: cddbd v1.5.2PL0 Copyright (c) Steve Scherf et al.
# Submitted via: CDex 1.70beta3
#
DISCID=9809260c
DTITLE=The Australian Jazz Quartet/Quintet - The Australian Jazz Quartet/Quintet
DYEAR=1956
DGENRE=Jazz
TTITLE0=A Foggy Day
TTITLE1=Broadway
TTITLE2=Little Girl Blue
TTITLE3=September Song
TTITLE4=Loose Walk
TTITLE5=The Girl With The Flaxen Hair
TTITLE6=You Are Too Beautiful
TTITLE7=Music For Walkin'
TTITLE8=Lullaby Of The Leaves
TTITLE9=Like Someone In Love
TTITLE10=The Thing We Did Last Summer
TTITLE11=Fascinating Rhythm
EXTD=YEAR: 1956
EXTT0=
EXTT1=
EXTT2=
EXTT3=
EXTT4=
EXTT5=
EXTT6=
EXTT7=
EXTT8=
EXTT9=
EXTT10=
EXTT11=
PLAYORDER=
